<?xml version="1.0" standalone="no"?>
<!DOCTYPE svg PUBLIC "-//W3C//DTD SVG 20010904//EN"
 "http://www.w3.org/TR/2001/REC-SVG-20010904/DTD/svg10.dtd">
<svg version="1.0" xmlns="http://www.w3.org/2000/svg"
 width="700.000000pt" height="700.000000pt" viewBox="0 0 700.000000 700.000000"
 preserveAspectRatio="xMidYMid meet">
<metadata>
Created by potrace 1.14, written by Peter Selinger 2001-2017
</metadata>
<g transform="translate(0.000000,700.000000) scale(0.100000,-0.100000)"
fill="#000000" stroke="none">
<path d="M3391 6328 c-39 -11 -93 -44 -137 -84 -118 -110 -244 -386 -307 -674
-43 -194 -42 -160 -34 -743 l2 -129 -37 -21 c-50 -30 -383 -241 -468 -297 -8
-5 -35 -23 -60 -39 -25 -15 -72 -46 -105 -67 -33 -21 -64 -41 -70 -44 -10 -5
-41 -25 -180 -115 -104 -68 -588 -376 -620 -395 -40 -24 -714 -455 -785 -502
l-65 -43 0 -254 c0 -185 3 -255 12 -258 6 -2 51 9 100 25 48 17 304 101 568
187 264 86 512 167 550 180 39 13 286 94 550 180 264 86 517 169 563 184 81
28 82 28 83 7 0 -12 2 -75 4 -141 2 -66 6 -221 9 -345 3 -124 8 -315 11 -425
3 -110 8 -271 10 -358 l4 -157 -82 -64 c-45 -35 -179 -139 -297 -230 -118 -92
-246 -191 -285 -220 -38 -30 -146 -114 -240 -185 -93 -72 -174 -139 -180 -149
-10 -19 -13 -468 -2 -478 3 -3 67 24 142 60 76 36 139 66 140 66 2 0 74 34
160 75 87 41 159 75 161 75 2 0 74 34 160 75 86 41 158 75 160 75 1 0 65 30
141 66 76 36 147 70 159 74 22 9 51 -35 290 -437 44 -73 81 -133 84 -133 3 0
19 25 35 55 17 30 33 55 38 55 4 0 7 4 7 9 0 9 246 419 261 435 5 6 52 -11
116 -41 59 -28 142 -67 183 -86 142 -66 215 -100 349 -163 73 -35 135 -64 136
-64 2 0 65 -30 141 -66 162 -77 285 -134 290 -134 2 0 4 110 4 244 l0 243
-156 119 c-86 65 -161 124 -168 129 -11 10 -73 59 -501 388 -121 94 -224 177
-229 185 -8 13 -8 87 -1 317 1 50 6 221 10 380 4 160 8 333 10 385 1 52 4 161
5 243 2 81 5 147 8 147 3 0 109 -34 236 -76 309 -102 389 -128 676 -222 135
-44 461 -151 725 -237 761 -249 780 -255 791 -255 6 0 9 95 9 255 0 241 -1
255 -20 272 -16 15 -375 246 -501 323 -26 16 -703 448 -844 539 -47 30 -121
77 -165 105 -103 65 -107 68 -136 87 -13 9 -185 119 -381 244 -219 139 -358
234 -359 244 -1 9 -1 19 0 23 0 3 3 138 6 300 4 266 3 301 -15 383 -46 211
-147 454 -256 623 -94 143 -222 256 -306 268 -18 3 -42 7 -53 8 -11 2 -35 -1
-54 -6z"/>
</g>
</svg>
