<svg width="153" height="22" viewBox="0 0 153 22" fill="none" xmlns="http://www.w3.org/2000/svg">
<path d="M18.3281 18.9231L20.3636 19.4179L20.0813 20.7251H13.3784V19.7038L15.4412 19.0638L13.5742 14.3296H5.56446L3.78402 18.9821L6.14732 19.4179L5.85134 20.7251H0V19.7038L2.06277 18.9821L9.07982 0.385815H11.2154L18.3281 18.9231ZM9.54884 3.7583L6.14732 12.741H12.9913L9.54884 3.7583ZM30.7229 20.7251H28.7012L21.5612 2.24227L19.3254 1.70213L19.6077 0.385815H26.6384V1.40709L24.4481 2.04255L30.2266 16.9214L35.4313 2.12879L32.9269 1.70213L33.2274 0.385815H39.5478V1.40709L37.271 2.21504L30.7229 20.7251ZM48.6822 1.40709L45.9046 2.24227V18.8687L48.6822 19.4179L48.3817 20.7251H40.2308V19.7038L42.9903 18.8687V2.24227L40.2308 1.70213L40.5131 0.385815H48.6822V1.40709ZM67.6069 18.9231L69.6423 19.4179L69.3554 20.7251H62.6571V19.7038L64.7199 19.0638L62.8529 14.3296H54.8432L53.0628 18.9821L55.4261 19.4179L55.1255 20.7251H49.2788V19.7038L51.3415 18.9821L58.3586 0.385815H60.4942L67.6069 18.9231ZM58.8276 3.7583L55.4261 12.741H62.2701L58.8276 3.7583ZM70.2525 15.065V12.8817H77.3697V15.065H70.2525ZM95.197 6.45447L94.2179 2.32851C93.7535 2.02591 93.2146 1.83225 92.6014 1.74752C91.9912 1.66279 91.3917 1.62043 90.8028 1.62043C89.8738 1.62043 88.9677 1.79896 88.0843 2.15603C87.2009 2.51612 86.4177 3.06988 85.7346 3.81731C85.0516 4.56473 84.5067 5.50582 84.0999 6.64057C83.6931 7.77532 83.4897 9.10827 83.4897 10.6394C83.4897 12.2947 83.6931 13.6866 84.0999 14.8153C84.5067 15.947 85.0622 16.8579 85.7665 17.5478C86.4678 18.2377 87.2738 18.737 88.1845 19.0457C89.0952 19.3513 90.0575 19.5087 91.0714 19.5177C91.8121 19.5087 92.439 19.427 92.9521 19.2726C93.4621 19.1153 93.9402 18.9231 94.3864 18.6962L95.4429 14.198L96.9228 14.5112V19.4769C96.0879 19.8824 95.1454 20.2606 94.095 20.6116C93.0477 20.9626 91.8076 21.1382 90.3747 21.1382C89.0481 21.1382 87.7822 20.9127 86.5771 20.4618C85.3719 20.014 84.3139 19.3498 83.4032 18.4692C82.4925 17.5887 81.7685 16.4917 81.2312 15.1784C80.6969 13.8652 80.4297 12.3522 80.4297 10.6394C80.4297 8.96605 80.7257 7.47423 81.3177 6.16397C81.9096 4.85371 82.7065 3.74317 83.7083 2.83234C84.7101 1.91849 85.8667 1.21797 87.1781 0.73078C88.4926 0.243594 89.8662 0 91.2991 0C92.1916 0 93.0856 0.0968319 93.9812 0.290496C94.8797 0.484161 95.7738 0.789787 96.6632 1.20738V6.15943L95.197 6.45447ZM112.774 19.1228L113.698 15.7594L115.219 16.0726V20.7251H99.4272V19.7038L102.187 18.8687V2.24227L99.4272 1.70213L99.7095 0.385815H114.609V5.15177L113.143 5.44681L112.218 1.98809H105.101V9.36397L110.028 9.2505L110.811 7.3078L111.836 7.58922V12.741L111.021 13.0224L110.028 11.107L105.101 10.9662V19.1228H112.774ZM117.528 0.385815H124.782C125.674 0.385815 126.601 0.449362 127.564 0.576454C128.526 0.703546 129.406 0.975886 130.205 1.39348C131 1.80804 131.662 2.42686 132.19 3.24993C132.715 4.073 132.978 5.18355 132.978 6.58156C132.978 7.25333 132.881 7.86156 132.687 8.40624C132.492 8.95092 132.23 9.42601 131.899 9.83149C131.565 10.237 131.176 10.5895 130.733 10.8891C130.287 11.1856 129.803 11.4338 129.28 11.6335L133.734 18.9504L136.097 19.4179L135.797 20.7251H131.398L126.448 12.3007C125.859 12.3552 125.304 12.3824 124.782 12.3824H122.919V18.8687L125.692 19.4179L125.396 20.7251H117.241V19.7038L120 18.8687V2.24227L117.241 1.70213L117.528 0.385815ZM124.782 1.98809H122.919V10.7938H124.782C125.41 10.7938 126.029 10.7453 126.639 10.6485C127.253 10.5487 127.801 10.3489 128.283 10.0494C128.766 9.75281 129.159 9.32766 129.463 8.7739C129.766 8.22014 129.918 7.48936 129.918 6.58156C129.918 5.62837 129.766 4.85522 129.463 4.26213C129.159 3.67206 128.766 3.20908 128.283 2.87319C127.801 2.5373 127.253 2.30582 126.639 2.17872C126.029 2.05163 125.41 1.98809 124.782 1.98809ZM138.315 1.98809L137.349 6.17305L135.897 5.87347V0.385815H153V5.87347L151.547 6.17305L150.582 1.98809H145.956V18.8687L148.72 19.4179L148.433 20.7251H140.264V19.7038L143.041 18.8687V1.98809H138.315Z" fill="#E1C42E"/>
</svg>
